<svg preserveAspectRatio="none" overflow="visible" style="display: block;" width="337.326" height="356.123" viewBox="0 0 337.326 356.123" fill="none" xmlns="http://www.w3.org/2000/svg">
<g id="Group 37642">
<path id="Vector" d="M286.665 0H260.461V26.187H286.665V0Z" fill="url(#paint0_linear_0_7)"/>
<path id="Vector_2" d="M308.653 121.785H282.452V147.972H308.653V121.785Z" fill="url(#paint1_linear_0_7)"/>
<path id="Vector_3" d="M128.463 219.485H102.262V245.672H128.463V219.485Z" fill="url(#paint2_linear_0_7)"/>
<path id="Vector_4" d="M79.8507 329.936H53.6498V356.123H79.8507V329.936Z" fill="url(#paint3_linear_0_7)"/>
<path id="Vector_5" d="M22.2821 269.029H0V291.296H22.2821V269.029Z" fill="url(#paint4_linear_0_7)"/>
<path id="Vector_6" d="M214.624 56.6577H171.216V100.042H214.624V56.6577Z" fill="url(#paint5_linear_0_7)"/>
<path id="Vector_7" d="M128.212 139.178H84.8047V182.559H128.212V139.178Z" fill="url(#paint6_linear_0_7)"/>
<path id="Vector_8" d="M245.768 155.054H192.936V207.858H245.768V155.054Z" fill="url(#paint7_linear_0_7)"/>
<path id="Vector_9" d="M337.326 159.963H324.241V173.041H337.326V159.963Z" fill="url(#paint8_linear_0_7)"/>
</g>
<defs>
<linearGradient id="paint0_linear_0_7" x1="-968.439" y1="-1120.89" x2="641.011" y2="-838.01" gradientUnits="userSpaceOnUse">
<stop stop-color="#5F1211"/>
<stop offset="1" stop-color="#F32F0A"/>
</linearGradient>
<linearGradient id="paint1_linear_0_7" x1="-946.278" y1="-999.108" x2="662.963" y2="-716.303" gradientUnits="userSpaceOnUse">
<stop stop-color="#5F1211"/>
<stop offset="1" stop-color="#F32F0A"/>
</linearGradient>
<linearGradient id="paint2_linear_0_7" x1="-1126.47" y1="-901.408" x2="482.773" y2="-618.603" gradientUnits="userSpaceOnUse">
<stop stop-color="#5F1211"/>
<stop offset="1" stop-color="#F32F0A"/>
</linearGradient>
<linearGradient id="paint3_linear_0_7" x1="-1175.08" y1="-790.958" x2="434.16" y2="-508.152" gradientUnits="userSpaceOnUse">
<stop stop-color="#5F1211"/>
<stop offset="1" stop-color="#F32F0A"/>
</linearGradient>
<linearGradient id="paint4_linear_0_7" x1="-1044.95" y1="-684.065" x2="323.586" y2="-443.523" gradientUnits="userSpaceOnUse">
<stop stop-color="#5F1211"/>
<stop offset="1" stop-color="#F32F0A"/>
</linearGradient>
<linearGradient id="paint5_linear_0_7" x1="-1864.43" y1="-1800.33" x2="801.61" y2="-1331.81" gradientUnits="userSpaceOnUse">
<stop stop-color="#5F1211"/>
<stop offset="1" stop-color="#F32F0A"/>
</linearGradient>
<linearGradient id="paint6_linear_0_7" x1="-1950.84" y1="-1717.66" x2="715.186" y2="-1249.1" gradientUnits="userSpaceOnUse">
<stop stop-color="#5F1211"/>
<stop offset="1" stop-color="#F32F0A"/>
</linearGradient>
<linearGradient id="paint7_linear_0_7" x1="-2284.69" y1="-2105.13" x2="960.201" y2="-1534.87" gradientUnits="userSpaceOnUse">
<stop stop-color="#5F1211"/>
<stop offset="1" stop-color="#F32F0A"/>
</linearGradient>
<linearGradient id="paint8_linear_0_7" x1="-289.394" y1="-399.808" x2="514.269" y2="-258.571" gradientUnits="userSpaceOnUse">
<stop stop-color="#5F1211"/>
<stop offset="1" stop-color="#F32F0A"/>
</linearGradient>
</defs>
</svg>
